# xmcd
#
# Track frame offsets: 
#        150
#        25038
#        43003
#        68683
#        89018
#        114505
#        149908
#        166908
#        198435
#        226058
#        253425
#
# Disc length: 3636 seconds
#
# Revision: 1
# Processed by: cddbd v1.5.2PL0 Copyright (c) Steve Scherf et al.
# Submitted via: ExactAudioCopy v0.95a5
#
DISCID=9c0e320b
DTITLE=Sonny Rollins - Sonny Rollins's Finest Hour
DYEAR=2002
DGENRE=Jazz
TTITLE0=Hold'Em, Joe
TTITLE1=Who Cares?
TTITLE2=On the Sunny Side of the Street
TTITLE3=Manhattan
TTITLE4=We Kiss in a Shadow
TTITLE5=Doxy
TTITLE6=Alfie's Theme Differently
TTITLE7=Three Little Words
TTITLE8=The Scene is Clean
TTITLE9=You Are Too Beautiful
TTITLE10=Body and Soul
EXTD=YEAR: 2002
EXTT0=
EXTT1=
EXTT2=
EXTT3=
EXTT4=
EXTT5=
EXTT6=
EXTT7=
EXTT8=
EXTT9=
EXTT10=
PLAYORDER=
